<svg xmlns="http://www.w3.org/2000/svg" width="43" height="43" viewBox="0 0 43 43">
  <rect x="1.5" y="1.5" width="40" height="40" rx="3.5" style="fill:#54545a"/>
  <path d="M38,2a3,3,0,0,1,3,3V38a3,3,0,0,1-3,3H5a3,3,0,0,1-3-3V5A3,3,0,0,1,5,2H38m0-1H5A4,4,0,0,0,1,5V38a4,4,0,0,0,4,4H38a4,4,0,0,0,4-4V5a4,4,0,0,0-4-4Z" style="fill:#b3b3b3;stroke-width:1.0015748;stroke-dasharray:none"/>
  <path d="M 16.798963,13.679793 14.08412,14.062706 12.860469,16.516209 11.657363,14.052567 8.9458146,13.646979 10.917098,11.741451 10.46492,9.0372811 12.886345,10.323242 15.318433,9.0575608 14.843673,11.757857 Z" style="fill:none;stroke:#c4c4c4;stroke-width:0.8;stroke-dasharray:none" transform="translate(2,0.6593574)"/>
  <path d="M 16.798963,13.679793 14.08412,14.062706 12.860469,16.516209 11.657363,14.052567 8.9458146,13.646979 10.917098,11.741451 10.46492,9.0372811 12.886345,10.323242 15.318433,9.0575608 14.843673,11.757857 Z" style="fill:none;stroke:#c4c4c4;stroke-width:0.8;stroke-dasharray:none" transform="translate(15.543848,0.6593574)"/>
  <path d="M 16.798963,13.679793 14.08412,14.062706 12.860469,16.516209 11.657363,14.052567 8.9458146,13.646979 10.917098,11.741451 10.46492,9.0372811 12.886345,10.323242 15.318433,9.0575608 14.843673,11.757857 Z" style="fill:none;stroke:#c4c4c4;stroke-width:0.8;stroke-dasharray:none" transform="translate(1.9999996,17.214798)"/>
  <path d="M 16.798963,13.679793 14.08412,14.062706 12.860469,16.516209 11.657363,14.052567 8.9458146,13.646979 10.917098,11.741451 10.46492,9.0372811 12.886345,10.323242 15.318433,9.0575608 14.843673,11.757857 Z" style="fill:none;stroke:#c4c4c4;stroke-width:0.8;stroke-dasharray:none" transform="translate(15.517972,17.291251)"/>
  <path d="M 21.527502,7.146574 V 35.745655" style="fill:#c4c4c4;stroke:#c4c4c4;stroke-width:0.8;stroke-linecap:round;stroke-dasharray:none"/>
  <path d="M 8.3002566,21.575891 H 34.251585" style="fill:#c4c4c4;stroke:#c4c4c4;stroke-width:0.8;stroke-linecap:round;stroke-dasharray:none"/>
</svg>
